<svg id="Group_226" data-name="Group 226" xmlns="http://www.w3.org/2000/svg" xmlns:xlink="http://www.w3.org/1999/xlink" width="52.253" height="51.392" viewBox="0 0 52.253 51.392">
  <defs>
    <clipPath id="clip-path">
      <rect id="Rectangle_1750" data-name="Rectangle 1750" width="52.253" height="51.392" fill="none"/>
    </clipPath>
  </defs>
  <g id="Group_226-2" data-name="Group 226" clip-path="url(#clip-path)">
    <path id="Path_2045" data-name="Path 2045" d="M83.755,0l4.12,33.988a3.245,3.245,0,0,1-2.711,3.594L81.03,3.476,46.925,7.61a3.245,3.245,0,0,1,2.842-3.491Z" transform="translate(-35.646 0.001)" fill="#c03"/>
    <path id="Path_2046" data-name="Path 2046" d="M61.065,28.95l4.12,33.988c.005.041.01.079.011.121a3.245,3.245,0,0,1-2.722,3.473L58.34,32.427l-34.1,4.134a3.246,3.246,0,0,1,2.722-3.473c.041-.008.079-.013.12-.018Z" transform="translate(-18.405 -21.997)" fill="#c03"/>
    <path id="Path_2047" data-name="Path 2047" d="M37.209,57.9,41.72,95.11a37.456,37.456,0,0,1-25.741-6.319A38.364,38.364,0,0,1,12.286,85.9,37.4,37.4,0,0,1,0,62.411Z" transform="translate(0 -43.995)" fill="#c03"/>
  </g>
</svg>
